<svg width="119" height="119" viewBox="0 0 119 119" fill="none" xmlns="http://www.w3.org/2000/svg">
<rect width="119" height="119" rx="59.5" fill="white"/>
<path d="M60 69.2812C59.3881 69.2812 58.79 69.4627 58.2812 69.8026C57.7724 70.1426 57.3759 70.6258 57.1417 71.1911C56.9076 71.7564 56.8463 72.3784 56.9657 72.9786C57.0851 73.5787 57.3797 74.1299 57.8124 74.5626C58.2451 74.9953 58.7963 75.2899 59.3964 75.4093C59.9966 75.5287 60.6186 75.4674 61.1839 75.2333C61.7492 74.9991 62.2324 74.6026 62.5724 74.0938C62.9123 73.585 63.0938 72.9869 63.0938 72.375C63.0938 71.5545 62.7678 70.7676 62.1876 70.1874C61.6074 69.6072 60.8205 69.2812 60 69.2812ZM60 73.4062C59.796 73.4062 59.5967 73.3458 59.4271 73.2325C59.2575 73.1191 59.1253 72.9581 59.0473 72.7696C58.9692 72.5812 58.9488 72.3739 58.9886 72.1738C59.0284 71.9738 59.1266 71.79 59.2708 71.6458C59.415 71.5016 59.5988 71.4034 59.7988 71.3636C59.9989 71.3238 60.2062 71.3442 60.3946 71.4223C60.5831 71.5003 60.7441 71.6325 60.8575 71.8021C60.9708 71.9717 61.0313 72.171 61.0313 72.375C61.0313 72.6485 60.9226 72.9108 60.7292 73.1042C60.5358 73.2976 60.2735 73.4062 60 73.4062Z" fill="black"/>
<path d="M85.7812 32.1564H71.2736C68.121 29.4928 64.1272 28.0315 60 28.0315C55.8728 28.0315 51.879 29.4928 48.7264 32.1564H34.2188C32.5782 32.158 31.0054 32.8104 29.8453 33.9704C28.6853 35.1305 28.0329 36.7033 28.0312 38.3439V73.4064C28.0329 75.0469 28.6853 76.6197 29.8453 77.7798C31.0054 78.9398 32.5782 79.5922 34.2188 79.5939H51.6128L50.8394 85.7814H49.6875C48.867 85.7814 48.0801 86.1073 47.4999 86.6875C46.9197 87.2677 46.5938 88.0546 46.5938 88.8751V90.9376C46.5938 91.2111 46.7024 91.4734 46.8958 91.6668C47.0892 91.8602 47.3515 91.9689 47.625 91.9689H72.375C72.6485 91.9689 72.9108 91.8602 73.1042 91.6668C73.2976 91.4734 73.4062 91.2111 73.4062 90.9376V88.8751C73.4062 88.0546 73.0803 87.2677 72.5001 86.6875C71.9199 86.1073 71.133 85.7814 70.3125 85.7814H69.1606L68.3872 79.5939H85.7812C87.4218 79.5922 88.9946 78.9398 90.1547 77.7798C91.3147 76.6197 91.9671 75.0469 91.9688 73.4064V38.3439C91.9671 36.7033 91.3147 35.1305 90.1547 33.9704C88.9946 32.8104 87.4218 32.158 85.7812 32.1564ZM75.4688 45.5626C75.4688 48.622 74.5615 51.6128 72.8618 54.1566C71.1621 56.7004 68.7462 58.6831 65.9196 59.8539C63.0931 61.0247 59.9828 61.331 56.9822 60.7341C53.9816 60.1373 51.2253 58.664 49.0619 56.5007C46.8986 54.3373 45.4253 51.5811 44.8285 48.5804C44.2316 45.5798 44.5379 42.4695 45.7087 39.643C46.8795 36.8164 48.8622 34.4005 51.406 32.7008C53.9498 31.0011 56.9406 30.0939 60 30.0939C64.1011 30.0985 68.033 31.7297 70.9329 34.6297C73.8329 37.5296 75.4641 41.4615 75.4688 45.5626ZM34.2188 34.2189H46.6577C44.1907 37.113 42.7381 40.7346 42.5213 44.5314H38.154C37.9107 43.8433 37.4321 43.2634 36.8026 42.8941C36.1731 42.5248 35.4333 42.39 34.714 42.5134C33.9947 42.6368 33.3422 43.0105 32.8718 43.5685C32.4014 44.1265 32.1434 44.8328 32.1434 45.5626C32.1434 46.2924 32.4014 46.9987 32.8718 47.5567C33.3422 48.1147 33.9947 48.4884 34.714 48.6118C35.4333 48.7352 36.1731 48.6004 36.8026 48.2311C37.4321 47.8618 37.9107 47.2819 38.154 46.5939H42.5213C42.6225 48.3583 42.9922 50.0971 43.6176 51.7501H37.3125C37.039 51.7501 36.7767 51.8588 36.5833 52.0522C36.3899 52.2456 36.2812 52.5079 36.2812 52.7814V57.0961C35.5932 57.3394 35.0133 57.8181 34.644 58.4475C34.2747 59.077 34.1399 59.8168 34.2633 60.5361C34.3867 61.2554 34.7604 61.9079 35.3184 62.3783C35.8764 62.8487 36.5827 63.1067 37.3125 63.1067C38.0423 63.1067 38.7486 62.8487 39.3066 62.3783C39.8646 61.9079 40.2383 61.2554 40.3617 60.5361C40.4851 59.8168 40.3503 59.077 39.981 58.4475C39.6117 57.8181 39.0318 57.3394 38.3438 57.0961V53.8126H44.5395C46.033 56.6159 48.2606 58.9603 50.9839 60.5951C53.7072 62.2299 56.8237 63.0935 60 63.0935C63.1763 63.0935 66.2928 62.2299 69.0161 60.5951C71.7394 58.9603 73.967 56.6159 75.4605 53.8126H81.6562V57.0961C80.9682 57.3394 80.3883 57.8181 80.019 58.4475C79.6497 59.077 79.5149 59.8168 79.6383 60.5361C79.7617 61.2554 80.1354 61.9079 80.6934 62.3783C81.2514 62.8487 81.9577 63.1067 82.6875 63.1067C83.4173 63.1067 84.1236 62.8487 84.6816 62.3783C85.2396 61.9079 85.6133 61.2554 85.7367 60.5361C85.8601 59.8168 85.7253 59.077 85.356 58.4475C84.9867 57.8181 84.4068 57.3394 83.7188 57.0961V52.7814C83.7188 52.5079 83.6101 52.2456 83.4167 52.0522C83.2233 51.8588 82.961 51.7501 82.6875 51.7501H76.3824C77.0078 50.0971 77.3775 48.3583 77.4787 46.5939H81.846C82.0893 47.2819 82.5679 47.8618 83.1974 48.2311C83.8269 48.6004 84.5667 48.7352 85.286 48.6118C86.0053 48.4884 86.6578 48.1147 87.1282 47.5567C87.5986 46.9987 87.8566 46.2924 87.8566 45.5626C87.8566 44.8328 87.5986 44.1265 87.1282 43.5685C86.6578 43.0105 86.0053 42.6368 85.286 42.5134C84.5667 42.39 83.8269 42.5248 83.1974 42.8941C82.5679 43.2634 82.0893 43.8433 81.846 44.5314H77.4787C77.2619 40.7346 75.8093 37.113 73.3423 34.2189H85.7812C86.8753 34.2189 87.9245 34.6535 88.6981 35.427C89.4717 36.2006 89.9062 37.2498 89.9062 38.3439V65.1564H30.0938V38.3439C30.0938 37.2498 30.5283 36.2006 31.3019 35.427C32.0755 34.6535 33.1247 34.2189 34.2188 34.2189ZM36.2812 45.5626C36.2812 45.7666 36.2208 45.966 36.1075 46.1355C35.9941 46.3051 35.8331 46.4373 35.6446 46.5154C35.4562 46.5934 35.2489 46.6138 35.0488 46.574C34.8488 46.5343 34.665 46.436 34.5208 46.2918C34.3766 46.1476 34.2784 45.9638 34.2386 45.7638C34.1988 45.5638 34.2192 45.3564 34.2972 45.168C34.3753 44.9795 34.5075 44.8185 34.6771 44.7052C34.8467 44.5918 35.046 44.5314 35.25 44.5314C35.5235 44.5314 35.7858 44.64 35.9792 44.8334C36.1726 45.0268 36.2812 45.2891 36.2812 45.5626ZM38.3438 60.0001C38.3438 60.2041 38.2833 60.4035 38.17 60.573C38.0566 60.7426 37.8956 60.8748 37.7071 60.9529C37.5187 61.0309 37.3114 61.0513 37.1113 61.0115C36.9113 60.9718 36.7275 60.8735 36.5833 60.7293C36.4391 60.5851 36.3409 60.4013 36.3011 60.2013C36.2613 60.0013 36.2817 59.7939 36.3597 59.6055C36.4378 59.417 36.57 59.256 36.7396 59.1427C36.9092 59.0293 37.1085 58.9689 37.3125 58.9689C37.586 58.9689 37.8483 59.0775 38.0417 59.2709C38.2351 59.4643 38.3438 59.7266 38.3438 60.0001ZM83.7188 60.0001C83.7188 60.2041 83.6583 60.4035 83.545 60.573C83.4316 60.7426 83.2706 60.8748 83.0821 60.9529C82.8937 61.0309 82.6864 61.0513 82.4863 61.0115C82.2863 60.9718 82.1025 60.8735 81.9583 60.7293C81.8141 60.5851 81.7159 60.4013 81.6761 60.2013C81.6363 60.0013 81.6567 59.7939 81.7348 59.6055C81.8128 59.417 81.945 59.256 82.1146 59.1427C82.2842 59.0293 82.4835 58.9689 82.6875 58.9689C82.961 58.9689 83.2233 59.0775 83.4167 59.2709C83.6101 59.4643 83.7188 59.7266 83.7188 60.0001ZM83.7188 45.5626C83.7188 45.3586 83.7792 45.1593 83.8925 44.9897C84.0059 44.8201 84.1669 44.6879 84.3554 44.6099C84.5438 44.5318 84.7511 44.5114 84.9512 44.5512C85.1512 44.591 85.335 44.6892 85.4792 44.8334C85.6234 44.9776 85.7216 45.1614 85.7614 45.3614C85.8012 45.5615 85.7808 45.7688 85.7027 45.9573C85.6247 46.1457 85.4925 46.3067 85.3229 46.4201C85.1533 46.5334 84.954 46.5939 84.75 46.5939C84.4765 46.5939 84.2142 46.4852 84.0208 46.2918C83.8274 46.0984 83.7188 45.8361 83.7188 45.5626ZM71.3438 88.8751V89.9064H48.6562V88.8751C48.6562 88.6016 48.7649 88.3393 48.9583 88.1459C49.1517 87.9525 49.414 87.8439 49.6875 87.8439H70.3125C70.586 87.8439 70.8483 87.9525 71.0417 88.1459C71.2351 88.3393 71.3438 88.6016 71.3438 88.8751ZM67.0816 85.7814H52.9184L53.6918 79.5939H66.3082L67.0816 85.7814ZM85.7812 77.5314H34.2188C33.1247 77.5314 32.0755 77.0968 31.3019 76.3232C30.5283 75.5496 30.0938 74.5004 30.0938 73.4064V67.2189H89.9062V73.4064C89.9062 74.5004 89.4717 75.5496 88.6981 76.3232C87.9245 77.0968 86.8753 77.5314 85.7812 77.5314Z" fill="black"/>
<path d="M56.9062 49.0832V54.8438C56.9062 55.0354 56.9595 55.2233 57.0602 55.3863C57.1609 55.5493 57.3051 55.6811 57.4765 55.7667L61.6015 57.8292C61.7588 57.9078 61.9335 57.9449 62.1092 57.9369C62.2848 57.929 62.4555 57.8763 62.605 57.7838C62.7545 57.6913 62.8779 57.5621 62.9634 57.4085C63.049 57.255 63.0938 57.0821 63.0938 56.9062V49.0832L68.9791 43.1978C69.1725 43.0045 69.2812 42.7422 69.2812 42.4688V36.2812C69.2812 36.0077 69.1726 35.7454 68.9792 35.552C68.7858 35.3586 68.5235 35.25 68.25 35.25H51.75C51.4765 35.25 51.2142 35.3586 51.0208 35.552C50.8274 35.7454 50.7188 36.0077 50.7188 36.2812V42.4688C50.7188 42.7422 50.8275 43.0045 51.0209 43.1978L56.9062 49.0832ZM61.3334 47.9272C61.14 48.1205 61.0313 48.3828 61.0312 48.6562V55.2377L58.9688 54.2064V48.6562C58.9687 48.3828 58.86 48.1205 58.6666 47.9272L54.2394 43.5H65.7606L61.3334 47.9272ZM67.2188 37.3125V41.4375H52.7812V37.3125H67.2188Z" fill="black"/>
</svg>
