<svg width="119" height="119" viewBox="0 0 119 119" fill="none" xmlns="http://www.w3.org/2000/svg">
<rect width="119" height="119" rx="59.5" fill="white"/>
<path d="M89.4662 48.3559C89.4662 44.9976 86.7665 42.2576 83.4003 42.1253V40.8302V32.8552C83.4003 30.7907 81.7211 29.1111 79.6562 29.1111H40.343C38.2781 29.1111 36.5989 30.7907 36.5989 32.8552V40.8302V42.1253C33.2332 42.2581 30.5339 44.9979 30.5339 48.3559V74.9824V74.9861V77.3737C30.5339 80.7777 33.3694 83.5474 36.854 83.5474H54.445L52.7691 89.0169H49.8432C49.3258 89.0169 48.9071 89.436 48.9071 89.9529C48.9071 90.4698 49.3258 90.8889 49.8432 90.8889H53.4611H66.5381H70.157C70.6744 90.8889 71.093 90.4698 71.093 89.9529C71.093 89.436 70.6744 89.0169 70.157 89.0169H67.2303L65.5551 83.5474H83.1453C86.6298 83.5474 89.4653 80.7777 89.4653 77.3737V74.9906C89.4653 74.989 89.4662 74.9877 89.4662 74.9861V48.3559ZM81.5283 43.0487V74.0404H38.471V43.0487V41.7662H81.5283L81.5283 43.0487ZM87.5942 48.3559V74.0464H83.4003V43.9916C85.7349 44.1209 87.5942 46.0291 87.5942 48.3559ZM38.471 32.8552C38.471 31.8227 39.311 30.9831 40.343 30.9831H79.6562C80.6882 30.9831 81.5283 31.8227 81.5283 32.8552V39.8941H38.471V32.8552ZM36.5989 43.9916V74.0464H32.406V48.3559C32.406 46.0291 34.2643 44.1214 36.5989 43.9916ZM65.2721 89.0169H54.7272L56.4027 83.5474H63.5975L65.2721 89.0169ZM83.1453 81.6754H64.2895H55.7107H36.854C34.4015 81.6754 32.406 79.7457 32.406 77.3737V75.9221H87.5933V77.3737C87.5933 79.7457 85.5978 81.6754 83.1453 81.6754Z" fill="black"/>
<path d="M60.8196 77.8608H59.1797C58.6623 77.8608 58.2437 78.2799 58.2437 78.7969C58.2437 79.3138 58.6623 79.7329 59.1797 79.7329H60.8196C61.3369 79.7329 61.7556 79.3138 61.7556 78.7969C61.7556 78.2799 61.3369 77.8608 60.8196 77.8608Z" fill="black"/>
<path d="M44.354 32.6309C42.8055 32.6309 41.5459 33.8905 41.5459 35.4389C41.5459 36.9874 42.8055 38.247 44.354 38.247C45.9025 38.247 47.1621 36.9874 47.1621 35.4389C47.1621 33.8905 45.9025 32.6309 44.354 32.6309ZM44.354 36.375C43.8293 36.375 43.418 35.9636 43.418 35.4389C43.418 34.9229 43.8375 34.5029 44.354 34.5029C44.8704 34.5029 45.29 34.9229 45.29 35.4389C45.29 35.9549 44.8704 36.375 44.354 36.375Z" fill="black"/>
<path d="M52.3659 32.6309C50.8175 32.6309 49.5579 33.8905 49.5579 35.4389C49.5579 36.9874 50.8175 38.247 52.3659 38.247C53.9144 38.247 55.174 36.9874 55.174 35.4389C55.174 33.8905 53.9144 32.6309 52.3659 32.6309ZM52.3659 36.375C51.8495 36.375 51.4299 35.9549 51.4299 35.4389C51.4299 34.9229 51.8495 34.5029 52.3659 34.5029C52.8824 34.5029 53.302 34.9229 53.302 35.4389C53.302 35.9549 52.8824 36.375 52.3659 36.375Z" fill="black"/>
<path d="M60.3789 32.6309C58.8304 32.6309 57.5708 33.8905 57.5708 35.4389C57.5708 36.9874 58.8304 38.247 60.3789 38.247C61.9274 38.247 63.187 36.9874 63.187 35.4389C63.187 33.8905 61.9274 32.6309 60.3789 32.6309ZM60.3789 36.375C59.8624 36.375 59.4429 35.9549 59.4429 35.4389C59.4429 34.9229 59.8624 34.5029 60.3789 34.5029C60.8953 34.5029 61.3149 34.9229 61.3149 35.4389C61.3149 35.9636 60.9036 36.375 60.3789 36.375Z" fill="black"/>
<path d="M77.0136 34.5037H67.2136C66.6962 34.5037 66.2776 34.9228 66.2776 35.4397C66.2776 35.9566 66.6962 36.3757 67.2136 36.3757H77.0136C77.531 36.3757 77.9496 35.9566 77.9496 35.4397C77.9496 34.9228 77.531 34.5037 77.0136 34.5037Z" fill="black"/>
<path d="M42.4775 47.0776H52.3662C52.8835 47.0776 53.3022 46.6585 53.3022 46.1416C53.3022 45.6247 52.8835 45.2056 52.3662 45.2056H42.4775C41.9602 45.2056 41.5415 45.6247 41.5415 46.1416C41.5415 46.6585 41.9602 47.0776 42.4775 47.0776Z" fill="black"/>
<path d="M42.4775 51.5215H48.2482C48.7656 51.5215 49.1842 51.1024 49.1842 50.5854C49.1842 50.0685 48.7656 49.6494 48.2482 49.6494H42.4775C41.9602 49.6494 41.5415 50.0685 41.5415 50.5854C41.5415 51.1024 41.9602 51.5215 42.4775 51.5215Z" fill="black"/>
<path d="M67.1697 47.0776H77.0583C77.5757 47.0776 77.9943 46.6585 77.9943 46.1416C77.9943 45.6247 77.5757 45.2056 77.0583 45.2056H67.1697C66.6523 45.2056 66.2336 45.6247 66.2336 46.1416C66.2336 46.6585 66.6523 47.0776 67.1697 47.0776Z" fill="black"/>
<path d="M77.0584 49.6489H71.2869C70.7695 49.6489 70.3508 50.068 70.3508 50.585C70.3508 51.1019 70.7695 51.521 71.2869 51.521H77.0584C77.5758 51.521 77.9945 51.1019 77.9945 50.585C77.9945 50.068 77.5758 49.6489 77.0584 49.6489Z" fill="black"/>
<path d="M64.9321 68.3616C65.1168 68.5655 65.3709 68.6692 65.6259 68.6692C65.8508 68.6692 66.0757 68.5892 66.2548 68.4265L72.2348 63.0055C72.4304 62.8282 72.5419 62.5759 72.5419 62.3117C72.5419 62.0476 72.4295 61.7953 72.2339 61.6179L66.2539 56.207C65.8709 55.861 65.2786 55.8903 64.9321 56.2733C64.5848 56.6567 64.615 57.2486 64.998 57.5955L70.2119 62.3126L64.997 67.0399C64.614 67.3868 64.5857 67.9791 64.9321 68.3616Z" fill="black"/>
<path d="M47.4583 62.3117C47.4583 62.5759 47.5698 62.8282 47.7654 63.0055L53.7444 68.4265C53.9236 68.5892 54.1485 68.6692 54.3733 68.6692C54.6284 68.6692 54.8825 68.5655 55.0671 68.3621C55.4136 67.9791 55.3852 67.3872 55.0022 67.0399L49.7883 62.3126L55.0013 57.595C55.3843 57.2486 55.4145 56.6563 55.0671 56.2733C54.7207 55.8903 54.1284 55.861 53.7454 56.207L47.7663 61.6184C47.5707 61.7957 47.4583 62.0476 47.4583 62.3117Z" fill="black"/>
<path d="M58.1816 71.2037C58.2438 71.216 58.305 71.222 58.3663 71.222C58.8032 71.222 59.1944 70.9144 59.2831 70.4697L62.5528 54.1385C62.6543 53.6317 62.3261 53.1385 61.8188 53.037C61.3106 52.937 60.8188 53.2642 60.7173 53.7711L57.4476 70.1022C57.3461 70.6091 57.6743 71.1022 58.1816 71.2037Z" fill="black"/>
</svg>
