<svg width="119" height="119" viewBox="0 0 119 119" fill="none" xmlns="http://www.w3.org/2000/svg">
<rect width="119" height="119" rx="59.5" fill="white"/>
<g clip-path="url(#clip0_257_97)">
<path d="M70.9282 32.2725H54.0926C53.5505 32.2725 53.1113 32.7116 53.1113 33.2537C53.1113 33.7957 53.5506 34.2349 54.0926 34.2349H70.9281C71.4702 34.2349 71.9095 33.7957 71.9095 33.2537C71.9095 32.7116 71.4702 32.2725 70.9282 32.2725Z" fill="black"/>
<path d="M61.5899 36.4541H54.0926C53.5505 36.4541 53.1113 36.8934 53.1113 37.4353C53.1113 37.9774 53.5506 38.4166 54.0926 38.4166H61.5899C62.1319 38.4166 62.5711 37.9774 62.5711 37.4353C62.5711 36.8933 62.1318 36.4541 61.5899 36.4541Z" fill="black"/>
<path d="M88.7633 36.6253C88.2214 36.6253 87.7821 37.0645 87.7821 37.6065C87.7821 38.1485 88.2213 38.5878 88.7633 38.5878C89.7287 38.5878 90.514 39.3731 90.514 40.3384V68.2187H83.3527V38.5876H84.988C85.53 38.5876 85.9693 38.1485 85.9693 37.6064C85.9693 37.0645 85.5301 36.6252 84.988 36.6252H83.3527V29.9482C83.3527 28.3226 82.0302 27 80.4045 27H39.3338C37.7082 27 36.3856 28.3226 36.3856 29.9482V36.6253H31.2366C29.1892 36.6253 27.5234 38.291 27.5234 40.3384V69.1999V78.2418C27.5234 80.2892 29.1892 81.9549 31.2366 81.9549H37.2795C37.8214 81.9549 38.2607 81.5157 38.2607 80.9737C38.2607 80.4318 37.8215 79.9925 37.2795 79.9925H31.2366C30.2712 79.9925 29.4859 79.2072 29.4859 78.2418V70.181H37.3667H82.3714H90.5139V78.2418C90.5139 79.2072 89.7286 79.9925 88.7632 79.9925H67.061H52.9389H41.9022C41.3602 79.9925 40.9209 80.4316 40.9209 80.9737C40.9209 81.5156 41.3601 81.9549 41.9022 81.9549H51.9576V87.1545C49.3148 87.2017 47.1788 89.3648 47.1788 92.0188C47.1788 92.5607 47.618 93 48.16 93H71.8399C72.3818 93 72.8211 92.5608 72.8211 92.0188C72.8211 89.3648 70.6851 87.2015 68.0423 87.1545V81.9549H88.7633C90.8107 81.9549 92.4765 80.2892 92.4765 78.2418V69.1999V40.3384C92.4763 38.291 90.8106 36.6253 88.7633 36.6253ZM36.3856 68.2187H29.4859V40.3384C29.4859 39.3731 30.2712 38.5878 31.2366 38.5878H36.3856V68.2187ZM81.3903 41.3353H47.9638C47.4219 41.3353 46.9826 41.7745 46.9826 42.3165C46.9826 42.8586 47.4218 43.2977 47.9638 43.2977H81.3903V68.2187H38.348V43.2977H42.8615C43.4034 43.2977 43.8427 42.8586 43.8427 42.3165C43.8427 41.7745 43.4035 41.3353 42.8615 41.3353H38.348V29.9482C38.348 29.4046 38.7901 28.9625 39.3337 28.9625H80.4045C80.9481 28.9625 81.3903 29.4046 81.3903 29.9482V41.3353ZM53.92 81.9548H66.0798V87.1522H53.92V81.9548ZM70.6881 91.0375H49.3118C49.715 89.9175 50.7882 89.1146 52.0454 89.1146H52.9389H67.061H67.9545C69.2117 89.1146 70.2849 89.9175 70.6881 91.0375Z" fill="black"/>
<path d="M60.5264 72.1213C58.8913 72.1213 57.561 73.4516 57.561 75.0868C57.561 76.7219 58.8913 78.0522 60.5264 78.0522C62.1617 78.0522 63.4919 76.722 63.4919 75.0868C63.4919 73.4516 62.1616 72.1213 60.5264 72.1213ZM60.5264 76.0897C59.9735 76.0898 59.5235 75.6398 59.5235 75.0868C59.5235 74.5337 59.9735 74.0838 60.5264 74.0838C61.0795 74.0838 61.5294 74.5338 61.5294 75.0868C61.5294 75.6398 61.0794 76.0897 60.5264 76.0897Z" fill="black"/>
<path d="M49.09 37.149L45.8604 31.5551C45.6851 31.2515 45.3613 31.0645 45.0107 31.0645C44.66 31.0645 44.3362 31.2515 44.1609 31.5551L40.9313 37.149C40.756 37.4525 40.756 37.8266 40.9313 38.1302C41.1066 38.4338 41.4304 38.6208 41.781 38.6208H48.2404C48.5909 38.6208 48.9148 38.4338 49.09 38.1302C49.2653 37.8266 49.2653 37.4525 49.09 37.149ZM43.4804 36.6585L45.0107 34.0082L46.5409 36.6585H43.4804Z" fill="black"/>
<path d="M78.4989 46.9158H64.2884C63.7464 46.9158 63.3071 47.355 63.3071 47.897C63.3071 48.4389 63.7463 48.8782 64.2884 48.8782H78.4989C79.0408 48.8782 79.4801 48.4391 79.4801 47.897C79.4801 47.355 79.0408 46.9158 78.4989 46.9158Z" fill="black"/>
<path d="M78.4989 51.2312H64.2884C63.7464 51.2312 63.3071 51.6704 63.3071 52.2124C63.3071 52.7545 63.7463 53.1937 64.2884 53.1937H78.4989C79.0408 53.1937 79.4801 52.7545 79.4801 52.2124C79.4801 51.6704 79.0408 51.2312 78.4989 51.2312Z" fill="black"/>
<path d="M78.4989 55.5466H64.2884C63.7464 55.5466 63.3071 55.9858 63.3071 56.5279C63.3071 57.0698 63.7463 57.5091 64.2884 57.5091H78.4989C79.0408 57.5091 79.4801 57.0699 79.4801 56.5279C79.4801 55.9858 79.0408 55.5466 78.4989 55.5466Z" fill="black"/>
<path d="M78.4989 59.8621H64.2884C63.7464 59.8621 63.3071 60.3012 63.3071 60.8433C63.3071 61.3852 63.7463 61.8245 64.2884 61.8245H78.4989C79.0408 61.8245 79.4801 61.3853 79.4801 60.8433C79.4801 60.3012 79.0408 59.8621 78.4989 59.8621Z" fill="black"/>
<path d="M70.9283 64.1772H64.2884C63.7464 64.1772 63.3071 64.6164 63.3071 65.1585C63.3071 65.7004 63.7463 66.1397 64.2884 66.1397H70.9283C71.4702 66.1397 71.9096 65.7005 71.9096 65.1585C71.9096 64.6164 71.4704 64.1772 70.9283 64.1772Z" fill="black"/>
<path d="M59.8693 46.0891H41.781C41.2391 46.0891 40.7998 46.5283 40.7998 47.0703V58.6398V65.1586C40.7998 65.7005 41.239 66.1398 41.781 66.1398H59.8693C60.4112 66.1398 60.8505 65.7007 60.8505 65.1586V59.6149V47.0703C60.8505 46.5283 60.4112 46.0891 59.8693 46.0891ZM42.7624 48.0516H58.8881V58.3112C58.7782 58.2924 58.6684 58.2759 58.5587 58.2637C56.8485 58.072 55.8652 58.7563 55.0748 59.306C54.4814 59.7185 53.969 60.0748 53.1107 60.1444C51.7224 60.2584 50.8323 59.5202 49.7048 58.5875C48.4496 57.5494 47.026 56.374 44.7632 56.5103C44.0846 56.5515 43.4158 56.7075 42.7624 56.975V48.0516ZM58.8882 64.1774H42.7623V59.1672C43.4584 58.7468 44.1694 58.5124 44.8821 58.4691C46.3727 58.3783 47.3373 59.1761 48.454 60.0997C49.688 61.1204 51.0857 62.2763 53.2694 62.1004C54.6549 61.988 55.5088 61.3943 56.1951 60.9173C56.8989 60.428 57.3645 60.1051 58.3406 60.2139C58.522 60.2343 58.705 60.2683 58.8882 60.3159V64.1774Z" fill="black"/>
<path d="M53.4137 50.2434C51.7583 50.2434 50.4116 51.5901 50.4116 53.2455C50.4116 54.9008 51.7583 56.2476 53.4137 56.2476C55.0691 56.2476 56.4158 54.9009 56.4158 53.2455C56.4158 51.5901 55.0691 50.2434 53.4137 50.2434ZM53.4137 54.2853C52.8405 54.2853 52.374 53.8188 52.374 53.2455C52.374 52.6721 52.8405 52.2057 53.4137 52.2057C53.987 52.2057 54.4535 52.6723 54.4535 53.2455C54.4535 53.8188 53.987 54.2853 53.4137 54.2853Z" fill="black"/>
</g>
<defs>
<clipPath id="clip0_257_97">
<rect width="66" height="66" fill="white" transform="translate(27 27)"/>
</clipPath>
</defs>
</svg>
