<svg width="757" height="116" viewBox="0 0 757 116" fill="none" xmlns="http://www.w3.org/2000/svg">
<path d="M368 1L388 1" stroke="white" stroke-width="2"/>
<path d="M149.389 50.5952L149.33 51.0918L149.331 51.0918L149.389 50.5952ZM3 109L6.42056 104.349L0.682277 103.712L3 109ZM4.33443 103.156C4.57943 101.866 4.86698 100.575 5.20036 99.2844L4.23216 99.0342C3.89318 100.346 3.60092 101.659 3.35199 102.97L4.33443 103.156ZM6.32072 95.4831C6.73391 94.2397 7.1931 93.0005 7.70126 91.7683L6.7768 91.3871C6.25948 92.6414 5.79215 93.9026 5.37174 95.1678L6.32072 95.4831ZM9.34317 88.1609C9.92751 86.9911 10.56 85.8304 11.2432 84.6813L10.3836 84.1702C9.68777 85.3407 9.04366 86.5228 8.44858 87.714L9.34317 88.1609ZM13.3933 81.3488C14.14 80.2794 14.935 79.2226 15.7808 78.1804L15.0043 77.5503C14.1433 78.6112 13.3338 79.6873 12.5734 80.7763L13.3933 81.3488ZM18.3844 75.1943C19.2721 74.2451 20.2066 73.3107 21.1897 72.3928L20.5072 71.6619C19.5077 72.5951 18.5573 73.5455 17.654 74.5112L18.3844 75.1943ZM24.1769 69.7803C25.1822 68.9563 26.2315 68.1481 27.3262 67.3572L26.7405 66.5467C25.6296 67.3493 24.5642 68.1699 23.543 69.0069L24.1769 69.7803ZM30.6058 65.1287C31.6974 64.4311 32.829 63.7494 34.0018 63.0847L33.5088 62.2147C32.3208 62.888 31.174 63.5788 30.0673 64.2861L30.6058 65.1287ZM37.5002 61.2159C38.6601 60.6321 39.8562 60.0639 41.0897 59.5122L40.6815 58.5994C39.4343 59.1572 38.2243 59.7319 37.0507 60.3226L37.5002 61.2159ZM44.7628 57.9631C45.9786 57.4801 47.2275 57.012 48.5104 56.5598L48.1779 55.6167C46.883 56.0732 45.6218 56.5458 44.3936 57.0338L44.7628 57.9631ZM52.2628 55.3132C53.5051 54.9248 54.7767 54.5504 56.0785 54.1906L55.8121 53.2267C54.4998 53.5894 53.2175 53.967 51.9644 54.3588L52.2628 55.3132ZM59.9614 53.1829C61.2226 52.8763 62.5102 52.5826 63.8246 52.3025L63.6161 51.3244C62.2926 51.6065 60.9958 51.9023 59.7251 52.2113L59.9614 53.1829ZM67.7299 51.5249C69.0252 51.2846 70.345 51.0569 71.6898 50.8421L71.532 49.8546C70.1792 50.0707 68.8512 50.2999 67.5475 50.5416L67.7299 51.5249ZM75.5985 50.264C76.9051 50.0858 78.2341 49.9194 79.5856 49.7649L79.4721 48.7714C78.1135 48.9267 76.7773 49.094 75.4634 49.2732L75.5985 50.264ZM83.5275 49.355C84.8373 49.2319 86.1674 49.1196 87.5179 49.0185L87.4433 48.0213C86.0865 48.1229 84.7501 48.2356 83.4339 48.3594L83.5275 49.355ZM91.4889 48.757C92.8017 48.6821 94.133 48.6174 95.4831 48.5631L95.4428 47.5639C94.0873 47.6184 92.7504 47.6834 91.4319 47.7586L91.4889 48.757ZM99.4644 48.4345C100.782 48.4022 102.116 48.3795 103.468 48.3666L103.458 47.3667C102.101 47.3796 100.762 47.4024 99.44 47.4348L99.4644 48.4345ZM107.444 48.3567C108.768 48.3626 110.108 48.3776 111.464 48.4019L111.482 47.402C110.122 47.3777 108.777 47.3626 107.448 47.3567L107.444 48.3567ZM115.423 48.4977C116.758 48.5383 118.107 48.5876 119.472 48.6458L119.515 47.6467C118.146 47.5884 116.792 47.5389 115.454 47.4982L115.423 48.4977ZM123.403 48.8358C124.727 48.9072 126.066 48.9867 127.418 49.0745L127.483 48.0766C126.127 47.9886 124.785 47.9089 123.457 47.8372L123.403 48.8358ZM131.388 49.3531C132.699 49.4519 134.024 49.5582 135.361 49.6722L135.446 48.6758C134.105 48.5615 132.778 48.4549 131.463 48.3559L131.388 49.3531ZM139.385 50.035C140.681 50.1581 141.99 50.2882 143.31 50.4255L143.413 49.4309C142.09 49.2933 140.779 49.1629 139.48 49.0395L139.385 50.035ZM147.306 50.8588C147.978 50.9347 148.652 51.0123 149.33 51.0918L149.447 50.0986C148.767 50.0189 148.091 49.9411 147.418 49.8652L147.306 50.8588ZM149.331 51.0918C150.009 51.1709 150.686 51.2491 151.361 51.3262L151.475 50.3327C150.801 50.2556 150.124 50.1776 149.447 50.0985L149.331 51.0918ZM155.389 51.7775C156.723 51.924 158.051 52.0666 159.371 52.2054L159.476 51.2109C158.157 51.0723 156.831 50.9298 155.498 50.7834L155.389 51.7775ZM163.31 52.6103C164.645 52.7445 165.973 52.8747 167.294 53.0009L167.389 52.0055C166.07 51.8794 164.744 51.7493 163.41 51.6153L163.31 52.6103ZM171.329 53.3768C172.665 53.498 173.994 53.615 175.315 53.7281L175.401 52.7317C174.081 52.6188 172.754 52.5019 171.419 52.3809L171.329 53.3768ZM179.255 54.0551C180.601 54.1634 181.939 54.2675 183.269 54.3674L183.344 53.3702C182.016 53.2705 180.68 53.1665 179.335 53.0583L179.255 54.0551ZM187.301 54.6592C188.636 54.7521 189.963 54.8408 191.281 54.9252L191.345 53.9272C190.028 53.8429 188.704 53.7544 187.37 53.6616L187.301 54.6592ZM195.209 55.1657C196.575 55.2454 197.931 55.3206 199.278 55.3911L199.33 54.3925C197.986 54.322 196.631 54.247 195.268 54.1674L195.209 55.1657ZM203.294 55.5893C204.623 55.6509 205.943 55.7079 207.253 55.7606L207.294 54.7614C205.985 54.7088 204.667 54.6519 203.34 54.5904L203.294 55.5893ZM211.258 55.9085C212.617 55.9543 213.965 55.9953 215.303 56.0315L215.33 55.0319C213.994 54.9957 212.648 54.9548 211.292 54.9091L211.258 55.9085ZM219.286 56.1259C220.618 56.1529 221.939 56.1751 223.25 56.1926L223.263 55.1927C221.955 55.1752 220.636 55.153 219.307 55.1261L219.286 56.1259ZM227.314 56.232C228.658 56.2401 229.991 56.2431 231.312 56.2412L231.311 55.2412C229.992 55.2431 228.661 55.2401 227.32 55.232L227.314 56.232ZM235.256 56.2205C236.626 56.2081 237.984 56.1902 239.33 56.1671L239.312 55.1673C237.969 55.1903 236.614 55.2081 235.247 55.2205L235.256 56.2205ZM243.331 56.0819C244.658 56.0481 245.973 56.0091 247.277 55.9649L247.243 54.9654C245.942 55.0095 244.63 55.0485 243.306 55.0822L243.331 56.0819ZM251.346 55.8086C252.689 55.7509 254.019 55.6877 255.337 55.6189L255.285 54.6203C253.97 54.6889 252.643 54.752 251.303 54.8096L251.346 55.8086ZM259.303 55.3933C260.666 55.3092 262.016 55.2191 263.351 55.1232L263.279 54.1258C261.947 54.2215 260.601 54.3113 259.241 54.3952L259.303 55.3933ZM267.315 54.8182C268.663 54.7074 269.997 54.5905 271.316 54.4678L271.224 53.4721C269.908 53.5945 268.578 53.711 267.233 53.8216L267.315 54.8182ZM275.324 54.072C276.646 53.9339 277.953 53.7896 279.244 53.6395L279.129 52.6462C277.841 52.7959 276.538 52.9397 275.22 53.0774L275.324 54.072ZM283.288 53.1441C284.619 52.9725 285.933 52.7945 287.231 52.6103L287.09 51.6202C285.797 51.8038 284.487 51.9812 283.16 52.1523L283.288 53.1441ZM291.213 52.0175C292.551 51.809 293.871 51.5937 295.172 51.372L295.004 50.3862C293.707 50.6071 292.393 50.8216 291.059 51.0294L291.213 52.0175ZM299.103 50.6721C300.443 50.4231 301.763 50.167 303.063 49.9041L302.865 48.924C301.57 49.1858 300.255 49.4409 298.92 49.6889L299.103 50.6721ZM306.955 49.0839C308.291 48.7906 309.606 48.4898 310.898 48.1821L310.667 47.2093C309.38 47.5157 308.071 47.8151 306.74 48.1072L306.955 49.0839ZM314.76 47.2251C316.086 46.8833 317.387 46.5339 318.665 46.1773L318.396 45.2141C317.125 45.5689 315.83 45.9166 314.51 46.2567L314.76 47.2251ZM322.499 45.0635C323.806 44.669 325.085 44.2668 326.338 43.8573L326.028 42.9068C324.782 43.3139 323.51 43.7139 322.21 44.1062L322.499 45.0635ZM330.144 42.5632C331.42 42.1117 332.666 41.6526 333.883 41.1863L333.526 40.2525C332.316 40.7156 331.078 41.1718 329.81 41.6204L330.144 42.5632ZM337.646 39.6846C338.903 39.1621 340.126 38.6319 341.316 38.0946L340.905 37.1832C339.724 37.7162 338.51 38.2425 337.262 38.7612L337.646 39.6846ZM344.942 36.3864C346.181 35.7777 347.38 35.1613 348.54 34.5381L348.067 33.6571C346.918 34.2745 345.729 34.8854 344.501 35.489L344.942 36.3864ZM352.043 32.569C353.223 31.8742 354.359 31.1725 355.45 30.4652L354.906 29.626C353.827 30.3254 352.704 31.0195 351.536 31.7072L352.043 32.569ZM358.767 28.2037C359.895 27.3941 360.968 26.579 361.989 25.7601L361.363 24.9801C360.357 25.7875 359.298 26.5919 358.184 27.3914L358.767 28.2037ZM365.063 23.1422C366.094 22.2083 367.059 21.2719 367.962 20.3356L367.242 19.6416C366.356 20.5611 365.406 21.4818 364.391 22.4011L365.063 23.1422ZM370.65 17.3279C371.54 16.2497 372.349 15.1754 373.08 14.109L372.255 13.5435C371.541 14.5847 370.751 15.6353 369.879 16.6914L370.65 17.3279ZM375.21 10.6359C375.885 9.3885 376.456 8.15839 376.927 6.95248L375.996 6.58853C375.54 7.75438 374.987 8.94707 374.33 10.1598L375.21 10.6359ZM378.13 3.06817C378.284 2.3899 378.405 1.72272 378.495 1.06811L377.505 0.931895C377.419 1.55712 377.303 2.19586 377.155 2.84672L378.13 3.06817Z" fill="white"/>
<path d="M607.221 50.5952L607.279 51.0918L607.279 51.0918L607.221 50.5952ZM754 109L750.578 104.35L756.316 103.711L754 109ZM752.661 103.145C752.415 101.853 752.126 100.559 751.79 99.2662L752.758 99.0151C753.099 100.329 753.393 101.645 753.643 102.958L752.661 103.145ZM750.664 95.4587C750.248 94.2133 749.786 92.9723 749.275 91.7383L750.199 91.3556C750.719 92.6119 751.189 93.875 751.612 95.1421L750.664 95.4587ZM747.624 88.1263C747.036 86.9554 746.4 85.7935 745.713 84.6432L746.572 84.1304C747.272 85.302 747.919 86.4853 748.518 87.6778L747.624 88.1263ZM743.552 81.3083C742.802 80.2389 742.003 79.182 741.153 78.1399L741.928 77.508C742.793 78.5689 743.606 79.645 744.37 80.7341L743.552 81.3083ZM738.537 75.1537C737.646 74.2048 736.707 73.2707 735.72 72.3531L736.401 71.6206C737.405 72.5534 738.359 73.5035 739.266 74.4689L738.537 75.1537ZM732.721 69.7423C731.712 68.919 730.659 68.1116 729.56 67.3214L730.144 66.5095C731.259 67.3114 732.328 68.1312 733.353 68.9674L732.721 69.7423ZM726.267 65.094C725.172 64.3974 724.036 63.7167 722.86 63.053L723.351 62.182C724.543 62.8542 725.693 63.544 726.804 64.2503L726.267 65.094ZM719.351 61.1872C718.188 60.6045 716.989 60.0374 715.752 59.4867L716.159 58.5731C717.409 59.1299 718.622 59.7035 719.799 60.2932L719.351 61.1872ZM712.069 57.9406C710.85 57.4582 709.597 56.9908 708.31 56.5391L708.641 55.5956C709.94 56.0514 711.205 56.5234 712.437 57.0107L712.069 57.9406ZM704.549 55.2954C703.304 54.9079 702.03 54.5343 700.725 54.1753L700.99 53.2112C702.305 53.573 703.59 53.9497 704.846 54.3406L704.549 55.2954ZM696.834 53.1701C695.569 52.864 694.278 52.5708 692.96 52.2912L693.168 51.313C694.495 51.5945 695.795 51.8898 697.069 52.1982L696.834 53.1701ZM689.048 51.5156C687.749 51.2758 686.426 51.0485 685.077 50.8341L685.234 49.8465C686.591 50.0622 687.922 50.2909 689.229 50.5322L689.048 51.5156ZM681.162 50.2577C679.852 50.08 678.521 49.914 677.167 49.76L677.28 48.7664C678.641 48.9212 679.98 49.0881 681.296 49.2668L681.162 50.2577ZM673.216 49.351C671.903 49.2283 670.571 49.1164 669.218 49.0156L669.292 48.0184C670.651 48.1196 671.99 48.232 673.309 48.3554L673.216 49.351ZM665.238 48.7549C663.923 48.6803 662.589 48.6158 661.236 48.5617L661.276 47.5625C662.634 47.6168 663.974 47.6816 665.294 47.7565L665.238 48.7549ZM657.246 48.4337C655.926 48.4016 654.59 48.3791 653.236 48.3663L653.245 47.3664C654.604 47.3792 655.946 47.4018 657.27 47.434L657.246 48.4337ZM649.251 48.3568C647.924 48.3629 646.581 48.378 645.223 48.4023L645.205 47.4025C646.568 47.378 647.915 47.3629 649.246 47.3568L649.251 48.3568ZM641.255 48.4984C639.918 48.539 638.566 48.5884 637.199 48.6466L637.156 47.6475C638.528 47.5891 639.884 47.5396 641.225 47.4988L641.255 48.4984ZM633.259 48.8367C631.932 48.9081 630.591 48.9877 629.236 49.0754L629.171 48.0775C630.53 47.9895 631.875 47.9098 633.205 47.8381L633.259 48.8367ZM625.258 49.3539C623.944 49.4527 622.617 49.559 621.277 49.673L621.193 48.6766C622.536 48.5623 623.866 48.4557 625.183 48.3567L625.258 49.3539ZM617.245 50.0356C615.946 50.1586 614.635 50.2887 613.312 50.4259L613.209 49.4312C614.535 49.2937 615.849 49.1634 617.151 49.04L617.245 50.0356ZM609.308 50.859C608.635 50.9348 607.958 51.0124 607.279 51.0918L607.163 50.0985C607.844 50.019 608.521 49.9412 609.196 49.8653L609.308 50.859ZM607.279 51.0918C606.598 51.1709 605.92 51.249 605.244 51.3262L605.13 50.3326C605.806 50.2556 606.484 50.1775 607.163 50.0985L607.279 51.0918ZM601.207 51.7773C599.869 51.9237 598.538 52.0663 597.215 52.2051L597.11 51.2106C598.432 51.072 599.761 50.9295 601.098 50.7832L601.207 51.7773ZM593.267 52.6099C591.928 52.744 590.597 52.8742 589.274 53.0004L589.179 52.0049C590.501 51.8789 591.83 51.7489 593.167 51.6149L593.267 52.6099ZM585.229 53.3762C583.889 53.4973 582.557 53.6144 581.233 53.7274L581.148 52.731C582.47 52.6182 583.801 52.5012 585.139 52.3802L585.229 53.3762ZM577.284 54.0544C575.935 54.1627 574.594 54.2667 573.261 54.3666L573.186 53.3694C574.517 53.2697 575.856 53.1658 577.204 53.0576L577.284 54.0544ZM569.22 54.6583C567.881 54.7513 566.551 54.8399 565.23 54.9243L565.166 53.9264C566.486 53.8421 567.814 53.7536 569.15 53.6607L569.22 54.6583ZM561.292 55.1649C559.923 55.2446 558.564 55.3197 557.214 55.3903L557.162 54.3917C558.51 54.3212 559.867 54.2462 561.234 54.1666L561.292 55.1649ZM553.189 55.5886C551.857 55.6501 550.534 55.7072 549.22 55.7598L549.18 54.7606C550.492 54.7081 551.813 54.6511 553.143 54.5896L553.189 55.5886ZM545.206 55.9079C543.845 55.9537 542.493 55.9947 541.152 56.0309L541.125 55.0313C542.464 54.9951 543.813 54.9542 545.173 54.9084L545.206 55.9079ZM537.159 56.1254C535.825 56.1525 534.501 56.1747 533.187 56.1923L533.174 55.1924C534.485 55.1748 535.807 55.1526 537.139 55.1256L537.159 56.1254ZM529.113 56.2318C527.766 56.24 526.43 56.2431 525.105 56.2412L525.106 55.2412C526.429 55.2431 527.763 55.24 529.107 55.2319L529.113 56.2318ZM521.153 56.2207C519.78 56.2084 518.419 56.1907 517.07 56.1676L517.087 55.1678C518.433 55.1908 519.792 55.2085 521.162 55.2208L521.153 56.2207ZM513.058 56.0826C511.728 56.049 510.411 56.01 509.105 55.966L509.139 54.9665C510.442 55.0105 511.756 55.0494 513.083 55.083L513.058 56.0826ZM505.026 55.8101C503.679 55.7525 502.345 55.6893 501.024 55.6207L501.076 54.6221C502.394 54.6905 503.725 54.7535 505.068 54.811L505.026 55.8101ZM497.051 55.3956C495.684 55.3116 494.331 55.2217 492.992 55.1259L493.064 54.1284C494.399 54.224 495.748 54.3137 497.112 54.3975L497.051 55.3956ZM489.018 54.8213C487.667 54.7107 486.33 54.594 485.009 54.4715L485.101 53.4758C486.419 53.598 487.752 53.7143 489.1 53.8246L489.018 54.8213ZM480.991 54.0763C479.666 53.9383 478.357 53.7944 477.062 53.6445L477.177 52.6512C478.468 52.8006 479.773 52.9441 481.094 53.0816L480.991 54.0763ZM473.008 53.1496C471.674 52.9782 470.356 52.8004 469.055 52.6164L469.195 51.6263C470.492 51.8097 471.805 51.9869 473.136 52.1578L473.008 53.1496ZM465.064 52.0246C463.723 51.8163 462.4 51.6013 461.095 51.3797L461.263 50.3939C462.563 50.6146 463.881 50.8289 465.218 51.0365L465.064 52.0246ZM457.156 50.681C455.812 50.4322 454.488 50.1764 453.185 49.9137L453.382 48.9334C454.681 49.195 455.999 49.4499 457.338 49.6977L457.156 50.681ZM449.285 49.0948C447.944 48.8017 446.626 48.5012 445.33 48.1937L445.561 47.2207C446.851 47.5269 448.164 47.826 449.499 48.1179L449.285 49.0948ZM441.46 47.2382C440.13 46.8967 438.825 46.5475 437.544 46.1911L437.812 45.2277C439.087 45.5823 440.386 45.9297 441.709 46.2697L441.46 47.2382ZM433.701 45.079C432.39 44.6848 431.107 44.2828 429.85 43.8735L430.159 42.9227C431.409 43.3296 432.685 43.7293 433.989 44.1214L433.701 45.079ZM426.035 42.5811C424.755 42.1299 423.505 41.671 422.284 41.205L422.64 40.2707C423.853 40.7336 425.096 41.1896 426.368 41.638L426.035 42.5811ZM418.511 39.705C417.251 39.1831 416.025 38.6535 414.832 38.1168L415.242 37.2048C416.426 37.7373 417.643 38.263 418.894 38.7811L418.511 39.705ZM411.193 36.4091C409.951 35.8009 408.748 35.185 407.584 34.5624L408.056 33.6807C409.209 34.2975 410.401 34.908 411.632 35.511L411.193 36.4091ZM404.071 32.5949C402.887 31.9006 401.748 31.1994 400.653 30.4926L401.195 29.6524C402.278 30.3513 403.405 31.045 404.577 31.7323L404.071 32.5949ZM397.322 28.2304C396.19 27.421 395.113 26.606 394.089 25.7874L394.713 25.0062C395.723 25.8135 396.786 26.6177 397.904 27.417L397.322 28.2304ZM391.003 23.1696C389.968 22.2354 388.998 21.2987 388.091 20.3623L388.81 19.6668C389.7 20.5866 390.654 21.5076 391.673 22.4271L391.003 23.1696ZM385.391 17.3528C384.497 16.2743 383.685 15.1995 382.95 14.1326L383.774 13.5655C384.491 14.6072 385.286 15.6583 386.161 16.7149L385.391 17.3528ZM380.809 10.6548C380.13 9.40524 379.556 8.173 379.082 6.96501L380.013 6.59981C380.471 7.76764 381.027 8.96238 381.688 10.1772L380.809 10.6548ZM377.872 3.07312C377.717 2.39321 377.595 1.72444 377.505 1.06828L378.495 0.931716C378.582 1.55833 378.699 2.19854 378.847 2.85092L377.872 3.07312Z" fill="white"/>
<path d="M378 115.5L380.887 110.5H375.113L378 115.5ZM377.5 1.5V3.53571H378.5V1.5H377.5ZM377.5 7.60714V11.6786H378.5V7.60714H377.5ZM377.5 15.75V19.8214H378.5V15.75H377.5ZM377.5 23.8929V27.9643H378.5V23.8929H377.5ZM377.5 32.0357V36.1071H378.5V32.0357H377.5ZM377.5 40.1786V44.25H378.5V40.1786H377.5ZM377.5 48.3214V52.3929H378.5V48.3214H377.5ZM377.5 56.4643V60.5357H378.5V56.4643H377.5ZM377.5 64.6072V68.6786H378.5V64.6072H377.5ZM377.5 72.75V76.8214H378.5V72.75H377.5ZM377.5 80.8929V84.9643H378.5V80.8929H377.5ZM377.5 89.0357V93.1071H378.5V89.0357H377.5ZM377.5 97.1786V101.25H378.5V97.1786H377.5ZM377.5 105.321V109.393H378.5V105.321H377.5Z" fill="white"/>
</svg>
