<svg width="523" height="679" viewBox="0 0 523 679" fill="none" xmlns="http://www.w3.org/2000/svg">
<g filter="url(#filter0_d_292_298)">
<rect x="27" y="10" width="138" height="138" rx="20" fill="#4064E9"/>
<path d="M96.1169 79.0001C96.1169 69.7954 103.579 62.3335 112.784 62.3335C121.988 62.3335 129.45 69.7956 129.45 79.0001C129.45 88.205 121.988 95.6667 112.784 95.6667C103.579 95.6667 96.1169 88.2048 96.1169 79.0001Z" fill="#00BCFF"/>
<path d="M62.7836 112.333C62.7836 103.129 70.2455 95.6668 79.4502 95.6668L88.332 90.9775L96.1168 95.6668V112.333C96.1168 121.538 88.6549 129 79.4502 129C70.2455 129 62.7836 121.538 62.7836 112.333Z" fill="#00CF7F"/>
<path d="M96.117 29L87.0479 44.7559L96.117 62.3332H112.55C121.755 62.3332 129.216 54.8713 129.216 45.6666C129.216 36.4619 121.754 29 112.55 29H96.117Z" fill="#FF7361"/>
<path d="M62.5496 45.6666C62.5496 54.8713 70.0115 62.3332 79.2162 62.3332L88.0574 65.748L96.1165 62.3332V29H79.216C70.0115 29 62.5496 36.4619 62.5496 45.6666Z" fill="#FF4D12"/>
<path d="M62.7836 79C62.7836 88.2049 70.2455 95.6667 79.4502 95.6667H96.1168V62.3333H79.4502C70.2455 62.3333 62.7836 69.7954 62.7836 79Z" fill="#B659FF"/>
</g>
<g filter="url(#filter1_d_292_298)">
<rect x="192" y="10" width="139" height="138" rx="20" fill="#4064E9"/>
<path d="M212 113.913V43.1689C212 42.6877 212.208 42.4125 212.692 42.4125C213.87 42.4125 214.978 42.4125 216.57 42.3439C218.232 42.2752 219.963 42.2752 221.833 42.2063C223.703 42.1373 225.711 42.1376 227.858 42.0686C230.004 42 232.082 42 234.159 42C239.837 42 244.546 42.6874 248.424 44.1311C251.887 45.3 255.072 47.2249 257.704 49.7685C259.92 51.9686 261.651 54.6499 262.759 57.606C263.798 60.4935 264.352 63.4497 264.352 66.5434C264.352 72.456 262.967 77.3371 260.197 81.1872C257.427 85.0373 253.549 87.9248 249.048 89.5748C244.339 91.2934 239.145 91.9122 233.467 91.9122C231.805 91.9122 230.697 91.9122 230.004 91.8435C229.312 91.7749 228.342 91.7749 227.027 91.7749V113.844C227.096 114.325 226.75 114.737 226.265 114.806C226.196 114.806 226.126 114.806 225.988 114.806H212.831C212.277 114.806 212 114.531 212 113.913ZM227.096 55.6815V78.7815C228.066 78.8501 228.966 78.9191 229.797 78.9191H233.467C238.249 78.9191 243.771 77.8034 247.109 74.038C249.981 70.7973 249.989 64.3707 247.663 60.838C244.901 56.6444 239.378 55.4294 234.644 55.5442C232.844 55.5442 231.251 55.5442 229.935 55.6128C228.55 55.5439 227.581 55.6125 227.096 55.6815Z" fill="#00A9FF"/>
<path d="M307.562 74.5877C305.485 73.4878 303.269 72.7314 300.915 72.2503C298.353 71.7002 295.79 71.3566 293.159 71.3566C291.774 71.288 290.32 71.4942 289.004 71.8378C288.104 72.044 287.342 72.5252 286.857 73.2129C286.511 73.763 286.303 74.4504 286.303 75.0691C286.303 75.6879 286.58 76.3066 286.996 76.8567C287.619 77.6131 288.45 78.2319 289.35 78.713C290.943 79.538 292.605 80.2944 294.267 80.9817C298.006 82.2192 301.607 83.9379 304.931 86.0004C307.216 87.4441 309.086 89.369 310.401 91.7067C311.509 93.9068 312.063 96.3129 311.994 98.7879C312.063 102.019 311.094 105.25 309.294 107.932C307.355 110.681 304.654 112.813 301.538 114.05C298.145 115.494 293.99 116.25 289.004 116.25C285.819 116.25 282.703 115.976 279.586 115.357C277.163 114.944 274.739 114.188 272.523 113.157C272.038 112.882 271.692 112.4 271.761 111.851V99.8881C271.761 99.6818 271.83 99.4069 272.038 99.2693C272.246 99.1317 272.454 99.2007 272.661 99.338C275.362 100.919 278.201 102.019 281.248 102.707C283.88 103.394 286.649 103.738 289.419 103.738C292.051 103.738 293.92 103.394 295.167 102.775C296.275 102.294 297.037 101.125 297.037 99.8878C297.037 98.9252 296.483 98.0315 295.375 97.1379C294.267 96.2442 291.982 95.213 288.588 93.9065C285.057 92.669 281.802 91.019 278.755 88.9565C276.608 87.4441 274.808 85.4503 273.492 83.1129C272.384 80.9128 271.83 78.5067 271.9 76.1004C271.9 73.1443 272.73 70.3254 274.254 67.7818C275.985 65.0319 278.547 62.8318 281.525 61.4566C284.78 59.8066 288.865 59.0503 293.782 59.0503C296.621 59.0503 299.53 59.2565 302.368 59.669C304.446 59.9439 306.454 60.494 308.324 61.2504C308.601 61.319 308.878 61.5943 309.016 61.8691C309.085 62.144 309.155 62.4193 309.155 62.6941V73.9003C309.155 74.1752 309.016 74.4504 308.809 74.5877C308.186 74.7253 307.839 74.7253 307.562 74.5877Z" fill="#00A9FF"/>
</g>
<g filter="url(#filter2_d_292_298)">
<rect x="358" y="10" width="138" height="138" rx="20" fill="#4064E9"/>
<g clip-path="url(#clip0_292_298)">
<path d="M427 29C413.25 29 402 51.5 402 79C402 106.5 413.25 129 427 129C440.75 129 452 106.5 452 79C452 51.5 440.75 29 427 29ZM427 122.75C416.687 122.75 408.25 103.062 408.25 79C408.25 54.9375 416.687 35.25 427 35.25C437.312 35.25 445.75 54.9375 445.75 79C445.75 103.062 437.312 122.75 427 122.75Z" fill="#5FCCFF"/>
<path d="M383.875 54C377 65.875 390.75 86.8125 414.812 100.563C438.875 114.313 463.562 115.875 470.75 104C477.937 92.125 463.875 71.1875 439.812 57.4375C415.75 43.6875 390.75 42.125 383.875 54ZM464.812 100.875C459.5 109.938 438.562 107.438 417.625 95.25C396.687 83.0625 383.875 66.1875 389.187 57.125C394.5 48.0625 415.437 50.5625 436.375 62.75C457.312 74.9375 470.125 91.8125 464.812 100.875Z" fill="#5FCCFF"/>
<path d="M414.5 57.4375C390.75 71.1875 377 92.125 383.875 104C390.75 115.875 415.75 114.313 439.812 100.563C463.875 86.8125 477.625 65.875 470.75 54C463.562 42.125 438.562 43.6875 414.5 57.4375ZM417.625 62.75C438.562 50.5625 459.812 48.0625 464.812 57.125C470.125 66.1875 457.312 83.0625 436.375 95.25C415.437 107.438 394.5 109.938 389.187 100.875C383.875 91.8125 396.687 74.9375 417.625 62.75Z" fill="#5FCCFF"/>
<path d="M427 85.25C430.452 85.25 433.25 82.4518 433.25 79C433.25 75.5482 430.452 72.75 427 72.75C423.548 72.75 420.75 75.5482 420.75 79C420.75 82.4518 423.548 85.25 427 85.25Z" fill="#5FCCFF"/>
</g>
</g>
<g filter="url(#filter3_d_292_298)">
<rect x="27" y="172" width="138" height="139" rx="20" fill="#4064E9"/>
<g clip-path="url(#clip1_292_298)">
<path d="M46 192H146V292H46V192Z" fill="#FFDF00"/>
<path d="M113.175 270.125C115.189 273.414 117.81 275.832 122.445 275.832C126.338 275.832 128.825 273.886 128.825 271.197C128.825 267.974 126.27 266.833 121.984 264.959L119.635 263.951C112.854 261.062 108.349 257.443 108.349 249.792C108.349 242.744 113.719 237.379 122.111 237.379C128.086 237.379 132.381 239.458 135.476 244.903L128.159 249.601C126.548 246.713 124.81 245.574 122.111 245.574C119.359 245.574 117.614 247.321 117.614 249.601C117.614 252.421 119.36 253.562 123.392 255.308L125.741 256.314C133.725 259.738 138.233 263.228 138.233 271.076C138.233 279.536 131.587 284.171 122.662 284.171C113.935 284.171 108.297 280.013 105.538 274.562L113.175 270.125ZM79.9793 270.94C81.4555 273.559 82.7984 275.773 86.027 275.773C89.1143 275.773 91.0619 274.565 91.0619 269.868V237.916H100.459V269.995C100.459 279.725 94.7541 284.154 86.427 284.154C78.9031 284.154 74.5461 280.26 72.3301 275.571L79.9793 270.94Z" fill="black"/>
</g>
</g>
<g filter="url(#filter4_d_292_298)">
<rect x="27" y="335" width="138" height="138" rx="20" fill="#4064E9"/>
<path d="M129.171 373.256C129.102 372.751 128.659 372.472 128.295 372.441C127.93 372.411 120.812 372.303 120.812 372.303C120.812 372.303 114.858 366.521 114.27 365.932C113.682 365.344 112.533 365.522 112.088 365.654C112.081 365.656 110.97 366 109.096 366.58C108.783 365.564 108.322 364.316 107.664 363.062C105.545 359.018 102.441 356.878 98.6902 356.872C98.6859 356.872 98.682 356.872 98.6775 356.872C98.4176 356.872 98.1584 356.897 97.899 356.92C97.7889 356.788 97.6773 356.656 97.56 356.53C95.927 354.783 93.8299 353.931 91.3199 354.005C86.4746 354.144 81.6518 357.642 77.7398 363.855C74.9861 368.228 72.8941 373.722 72.2992 377.974C66.7371 379.696 62.8455 380.902 62.7613 380.928C59.9537 381.809 59.8654 381.897 59.4973 384.542C59.2186 386.545 51.873 443.353 51.873 443.353L113.442 454L140.127 447.367C140.127 447.367 129.24 373.761 129.171 373.256ZM75.7484 376.905C77.4133 369.121 83.9359 357.443 91.4131 357.228C92.5506 357.204 93.5086 357.453 94.3268 357.992C93.0182 358.671 91.7523 359.648 90.565 360.921C87.4877 364.223 85.1305 369.348 84.1904 374.291C81.2568 375.2 78.3879 376.088 75.7484 376.905ZM98.0129 370.011C94.7875 371.01 91.2662 372.1 87.7338 373.194C88.7283 369.39 90.6107 365.602 92.924 363.121C93.7846 362.198 94.9885 361.168 96.4139 360.579C97.7549 363.374 98.0453 367.335 98.0129 370.011ZM101.234 369.014C101.198 366.561 100.905 363.148 99.7621 360.199C103.438 360.895 105.248 365.054 106.012 367.535C104.595 367.973 102.982 368.473 101.234 369.014Z" fill="#95BF47"/>
<path d="M128.295 372.441C127.93 372.411 120.812 372.303 120.812 372.303C120.812 372.303 114.858 366.521 114.27 365.932C114.051 365.713 113.753 365.6 113.444 365.552L113.445 453.999L140.127 447.367C140.127 447.367 129.24 373.761 129.171 373.256C129.102 372.751 128.659 372.472 128.295 372.441Z" fill="#5E8E3E"/>
<path d="M98.6547 386.162L95.5553 397.756C95.5553 397.756 92.0982 396.182 87.9996 396.44C81.99 396.82 81.9261 400.611 81.9861 401.561C82.3135 406.746 95.9545 407.879 96.7213 420.024C97.3246 429.579 91.6531 436.115 83.481 436.631C73.6746 437.25 68.2748 431.464 68.2748 431.464L70.3527 422.623C70.3527 422.623 75.7869 426.723 80.1369 426.448C82.9783 426.269 83.9935 423.958 83.8904 422.323C83.4633 415.559 72.3554 415.958 71.6537 404.844C71.0631 395.49 77.2052 386.014 90.7584 385.158C95.9804 384.829 98.6547 386.162 98.6547 386.162Z" fill="white"/>
</g>
<g filter="url(#filter5_d_292_298)">
<rect x="27" y="497" width="138" height="138" rx="20" fill="#4064E9"/>
<g clip-path="url(#clip2_292_298)">
<path d="M67.6104 517.021C69.108 519.061 71.0118 520.729 72.7489 522.548C77.77 527.816 82.831 533.047 87.8756 538.294C88.1104 538.539 88.3216 538.806 88.6972 539.229H61.6808L73.8569 550.684C73.8733 551.187 73.9085 551.692 73.9085 552.198C73.9085 572.899 73.9085 593.601 73.9085 614.303C73.9085 614.614 73.932 614.923 73.9437 615.239H60.7982C60.7982 590.308 60.8052 565.377 60.8193 540.448C60.8193 539.491 60.6127 539.21 59.6174 539.225C55.0846 539.281 50.5493 539.248 46.0165 539.248V539.014C46.3381 539.014 46.4695 538.745 46.6503 538.546C51.5752 533.414 56.4954 528.278 61.4109 523.138C63.3334 521.115 65.3874 519.213 67.1315 517.026L67.6104 517.021Z" fill="#FCC301"/>
<path d="M118.066 615.222C118.066 590.366 118.074 565.511 118.092 540.658C118.092 539.568 117.887 539.213 116.714 539.239C112.69 539.32 108.662 539.269 104.634 539.269H103.242C105.533 536.871 107.646 534.658 109.765 532.448C114.488 527.522 119.211 522.596 123.934 517.671C124.107 517.466 124.264 517.249 124.404 517.021H124.873C124.948 517.529 125.38 517.777 125.693 518.104C130.857 523.484 136.021 528.899 141.221 534.261C142.779 535.87 144.214 537.606 145.988 538.998V539.232L131.256 539.262H118.941C123.146 543.203 127.134 546.944 131.12 550.686C131.136 551.154 131.169 551.622 131.169 552.09C131.169 572.675 131.169 593.255 131.169 613.83C131.169 614.298 131.193 614.766 131.204 615.234L118.066 615.222Z" fill="#4ACE27"/>
<path d="M88.5141 614.974C88.5141 600.64 88.5141 586.305 88.5141 571.971C88.5141 570.82 88.2793 570.469 87.0657 570.495C83.1291 570.584 79.1925 570.528 74.9202 570.528C76.223 569.157 77.3239 567.99 78.4413 566.829C84.1596 560.863 89.8803 554.896 95.6033 548.928C95.9788 548.535 96.2206 548.032 96.8662 548.708C103.572 555.725 110.292 562.733 117.026 569.732C117.207 569.919 117.472 570.057 117.495 570.588H89.1526C89.2569 570.752 89.373 570.909 89.5 571.056C92.2418 573.456 94.9742 575.861 97.73 578.242C99.5751 579.833 101.453 581.384 103.315 582.953C103.35 583.421 103.415 583.889 103.415 584.34C103.415 594.213 103.415 604.088 103.415 613.964C103.415 614.387 103.472 614.808 103.502 615.232H103.033C102.676 614.874 102.223 615.028 101.812 615.028C97.3834 614.998 92.9507 614.981 88.5141 614.974Z" fill="#2996FA"/>
<path d="M88.5141 614.974C92.9476 614.985 97.3826 615 101.819 615.019C102.23 615.019 102.683 614.864 103.04 615.222H88.4883L88.5141 614.974Z" fill="#85C1F8"/>
<path d="M103.315 582.944C101.453 581.374 99.5751 579.823 97.73 578.233C94.9742 575.851 92.2418 573.447 89.5 571.047C89.373 570.899 89.2569 570.743 89.1526 570.579H103.378C103.39 574.312 103.4 578.046 103.406 581.781C103.406 582.177 103.347 582.56 103.315 582.944Z" fill="#1F81DA"/>
<path d="M73.8568 550.684L61.6808 539.239H73.946C73.9163 543.051 73.8866 546.867 73.8568 550.684Z" fill="#DAA902"/>
<path d="M131.244 539.262C131.218 542.487 131.191 545.713 131.164 548.939C131.164 549.522 131.127 550.109 131.108 550.687C127.117 546.944 123.127 543.201 118.93 539.262H131.244Z" fill="#59BA4B"/>
</g>
</g>
<g filter="url(#filter6_d_292_298)">
<rect x="192" y="172" width="139" height="139" rx="20" fill="#4064E9"/>
<path fill-rule="evenodd" clip-rule="evenodd" d="M237 232C240.333 218.667 248.667 212 262 212C282 212 284.5 227 294.5 229.5C301.167 231.167 307 228.667 312 222C308.667 235.333 300.333 242 287 242C267 242 264.5 227 254.5 224.5C247.833 222.833 242 225.333 237 232ZM212 262C215.333 248.667 223.667 242 237 242C257 242 259.5 257 269.5 259.5C276.167 261.167 282 258.667 287 252C283.667 265.333 275.333 272 262 272C242 272 239.5 257 229.5 254.5C222.833 252.833 217 255.333 212 262Z" fill="white"/>
</g>
<g filter="url(#filter7_d_292_298)">
<rect x="192" y="335" width="139" height="138" rx="20" fill="#4064E9"/>
<g clip-path="url(#clip3_292_298)">
<path d="M241.997 384.862H236.475L251.53 427.42L259.959 403.334L253.424 384.862H247.597V380.807H273.399V384.862H267.357L282.412 427.42L287.824 411.955C294.923 392.141 282.005 385.968 282.005 381.546C282.005 377.125 285.59 373.54 290.012 373.54C290.251 373.54 290.483 373.553 290.711 373.574C283.219 366.501 273.116 362.164 262 362.164C247.474 362.164 234.679 369.568 227.179 380.807H241.997V384.862H241.997Z" fill="white"/>
<path d="M220.164 404C220.164 420.017 229.166 433.929 242.386 440.96L223.506 387.591C221.356 392.629 220.164 398.175 220.164 404Z" fill="white"/>
<path d="M298.41 383.385C299.008 386.908 298.827 390.868 297.908 394.844H298.075L297.442 396.652C297.067 397.957 296.595 399.292 296.059 400.604L281.664 440.932C294.856 433.894 303.836 419.996 303.836 404C303.836 396.504 301.862 389.47 298.41 383.385Z" fill="white"/>
<path d="M249.097 443.805C253.162 445.121 257.497 445.836 262 445.836C266.295 445.836 270.438 445.187 274.339 443.985L262.102 409.392L249.097 443.805Z" fill="white"/>
<path d="M297.355 368.645C287.911 359.201 275.355 354 262 354C248.644 354 236.088 359.201 226.645 368.645C217.201 378.088 212 390.644 212 404C212 417.355 217.201 429.911 226.645 439.355C236.088 448.799 248.645 454 262 454C275.355 454 287.911 448.799 297.355 439.355C306.799 429.911 312 417.355 312 404C312 390.644 306.799 378.088 297.355 368.645ZM262 450.473C236.375 450.473 215.527 429.625 215.527 404C215.527 378.375 236.375 357.527 262 357.527C287.625 357.527 308.472 378.375 308.472 404C308.472 429.625 287.625 450.473 262 450.473Z" fill="white"/>
</g>
</g>
<g filter="url(#filter8_d_292_298)">
<rect x="192" y="497" width="139" height="138" rx="20" fill="#4064E9"/>
<path d="M233.172 516H237.664V520.453H241.805V516H246.297V529.477H241.805V524.984H237.703V529.477H233.172V516ZM252.234 520.492H248.27V516H260.711V520.492H256.727V529.477H252.234V520.492ZM262.684 516H267.391L270.281 520.746L273.172 516H277.879V529.477H273.387V522.797L270.242 527.641L267.098 522.797V529.477H262.684V516ZM280.105 516H284.598V525.023H290.965V529.477H280.105V516Z" fill="white"/>
<path d="M233.016 607.992L226.57 535.648H297.43L290.984 607.953L261.941 616" fill="#FF4C1E"/>
<path d="M262 609.848V541.586H290.965L285.438 603.305L262 609.848Z" fill="#FF651E"/>
<path d="M239.734 550.434H262L265.311 554.867L262 559.301H249.461L250.281 568.383H262L265.311 572.982L262 577.23H242.156L239.734 550.434ZM242.547 581.684H251.453L252.078 588.773L262 591.43L265.736 595.855L262 600.687L243.797 595.609L242.547 581.684Z" fill="#EBEBEB"/>
<path d="M284.188 550.434H261.961V559.301H283.367L284.188 550.434ZM282.566 568.383H261.961V577.25H272.898L271.863 588.773L261.961 591.43V600.648L280.125 595.609L282.566 568.383Z" fill="white"/>
</g>
<g filter="url(#filter9_d_292_298)">
<rect x="357" y="172" width="138" height="139" rx="20" fill="#4064E9"/>
<g clip-path="url(#clip4_292_298)">
<path d="M462.364 192H389.636C386.02 192 382.551 193.437 379.994 195.994C377.437 198.551 376 202.02 376 205.636V278.364C376 281.98 377.437 285.449 379.994 288.006C382.551 290.563 386.02 292 389.636 292H462.364C465.98 292 469.449 290.563 472.006 288.006C474.563 285.449 476 281.98 476 278.364V205.636C476 202.02 474.563 198.551 472.006 195.994C469.449 193.437 465.98 192 462.364 192ZM435.801 271.858C434.199 272.165 433.653 271.199 433.653 270.398C433.653 269.398 433.693 266.097 433.693 261.989C433.693 259.108 432.676 257.227 431.585 256.307C438.534 255.551 445.841 252.955 445.841 241.159C445.887 238.097 444.737 235.137 442.636 232.909C442.949 232.131 444.006 229.006 442.324 224.778C442.324 224.778 439.71 223.955 433.801 227.926C428.684 226.547 423.293 226.547 418.176 227.926C412.199 223.949 409.58 224.778 409.58 224.778C407.875 229.017 408.955 232.142 409.278 232.909C407.172 235.13 406.018 238.087 406.062 241.148C406.062 252.909 413.358 255.551 420.267 256.318C419.134 257.404 418.432 258.863 418.29 260.426C416.5 261.21 411.972 262.568 409.199 257.875C409.199 257.875 407.551 254.92 404.415 254.71C404.415 254.71 401.364 254.67 404.193 256.574C404.193 256.574 406.25 257.523 407.67 261.063C407.67 261.063 409.506 267.034 418.199 265.187C418.199 267.744 418.233 269.676 418.233 270.409C418.233 271.142 417.665 272.17 416.102 271.881C403.705 267.835 394.75 256.33 394.75 242.761C394.75 225.801 408.733 212.08 426 212.08C443.267 212.08 457.25 225.83 457.25 242.79C457.25 256.307 448.307 267.824 435.801 271.858Z" fill="black"/>
</g>
</g>
<g filter="url(#filter10_d_292_298)">
<rect x="357" y="335" width="138" height="138" rx="20" fill="#4064E9"/>
<path d="M470.269 362H381.731C378.573 362 376 364.573 376 367.731V439.661C376 442.819 378.573 445.392 381.731 445.392H470.269C473.427 445.392 476 442.819 476 439.661V367.731C476 364.573 473.427 362 470.269 362ZM464.889 367.497C466.877 367.497 468.515 369.135 468.515 371.123C468.515 373.111 466.877 374.749 464.889 374.749C462.901 374.749 461.263 373.111 461.263 371.123C461.263 369.135 462.901 367.497 464.889 367.497ZM451.906 367.497C453.895 367.497 455.532 369.135 455.532 371.123C455.532 373.111 453.895 374.749 451.906 374.749C449.918 374.749 448.281 373.111 448.281 371.123C448.281 369.135 449.918 367.497 451.906 367.497ZM438.807 367.497C440.795 367.497 442.433 369.135 442.433 371.123C442.433 373.111 440.795 374.749 438.807 374.749C436.819 374.749 435.181 373.111 435.181 371.123C435.181 369.135 436.819 367.497 438.807 367.497ZM468.632 438.023H383.251V379.778H468.632V438.023Z" fill="white"/>
<path d="M409.918 431.825C411.088 429.836 413.544 428.901 415.766 429.485C417.871 430.187 420.093 429.135 420.795 427.029V426.912C421.614 424.807 420.561 422.351 418.456 421.532C416.468 420.597 415.298 418.374 415.649 416.152C416 413.813 417.988 412.059 420.327 412.059C422.667 412.059 424.538 410.07 424.538 407.731C424.538 405.392 422.55 403.521 420.21 403.521C417.871 403.404 415.883 401.766 415.415 399.427C415.298 398.725 415.298 398.023 415.415 397.322C415.649 395.801 416.585 394.515 417.988 393.813C419.976 392.76 420.795 390.304 419.743 388.199C419.041 385.977 416.585 384.807 414.479 385.626C413.427 386.094 412.257 386.094 411.205 385.743C410.269 385.275 409.45 384.69 408.865 383.871C407.93 382.585 407.579 381.064 407.93 379.544H388.397C397.403 384.456 406.058 394.164 406.292 407.146C406.526 421.181 399.041 432.526 388.164 437.907H410.152C408.631 436.269 408.514 433.696 409.918 431.825Z" fill="#3C9BD6"/>
<path d="M437.403 385.392C439.275 386.912 439.743 389.485 438.69 391.474C437.754 393.696 435.532 394.983 433.31 394.632C431.204 394.164 429.099 395.567 428.631 397.79C428.631 397.907 428.631 397.907 428.631 398.023C428.164 400.246 429.567 402.468 431.672 402.936C433.895 403.521 435.298 405.509 435.298 407.731C435.298 409.953 433.661 411.942 431.438 412.409C429.099 412.76 427.579 414.983 427.93 417.322C428.281 419.661 430.503 421.181 432.842 420.83C435.181 420.48 437.403 421.883 438.222 424.105C438.456 424.807 438.573 425.392 438.573 426.094C438.573 427.614 437.871 429.135 436.585 429.953C434.713 431.357 434.362 433.93 435.649 435.801C436.234 436.737 437.052 437.439 437.988 437.907H464.07C455.766 433.813 448.047 426.094 446.175 415.099C443.485 399.544 450.854 385.977 463.251 379.661H436.702C435.298 381.532 435.649 383.988 437.403 385.392Z" fill="#E74F38"/>
</g>
<g filter="url(#filter11_d_292_298)">
<rect x="357" y="497" width="138" height="138" rx="20" fill="#4064E9"/>
<path d="M461.423 535.652L454.969 607.957L425.957 616L397.024 607.968L390.577 535.652H461.423Z" fill="#004CE8"/>
<path d="M449.443 603.353L454.959 541.565H426V609.852L449.443 603.353Z" fill="#0065F4"/>
<path d="M405.357 568.386L406.152 577.255H426L429.815 572.821L426 568.386H405.357Z" fill="#EBEBEB"/>
<path d="M426 550.435H425.969H403.76L404.566 559.304H426L429.815 554.869L426 550.435Z" fill="#EBEBEB"/>
<path d="M426 600.648L429.815 595.945L426 591.42L425.961 591.431L416.083 588.764L415.452 581.69H410.652H406.549L407.791 595.616L425.959 600.659L426 600.648Z" fill="#EBEBEB"/>
<path d="M407.25 516H417.992V520.492H411.742V524.984H417.992V529.477H407.25V516Z" fill="white"/>
<path d="M420.141 516H430.883V519.906H424.633V520.688H430.883V529.672H420.141V525.57H426.391V524.789H420.141V516Z" fill="white"/>
<path d="M433.031 516H443.773V519.906H437.523V520.688H443.773V529.672H433.031V525.57H439.281V524.789H433.031V516Z" fill="white"/>
<path d="M436.891 577.255L435.861 588.758L425.969 591.428V600.655L444.152 595.616L444.285 594.118L446.369 570.768L446.586 568.386L448.187 550.435H425.969V559.304H438.467L437.66 568.386H425.969V577.255H436.891Z" fill="white"/>
</g>
<defs>
<filter id="filter0_d_292_298" x="0" y="0" width="192" height="192" filterUnits="userSpaceOnUse" color-interpolation-filters="sRGB">
<feFlood flood-opacity="0" result="BackgroundImageFix"/>
<feColorMatrix in="SourceAlpha" type="matrix" values="0 0 0 0 0 0 0 0 0 0 0 0 0 0 0 0 0 0 127 0" result="hardAlpha"/>
<feOffset dy="17"/>
<feGaussianBlur stdDeviation="13.5"/>
<feComposite in2="hardAlpha" operator="out"/>
<feColorMatrix type="matrix" values="0 0 0 0 0.25098 0 0 0 0 0.392157 0 0 0 0 0.913725 0 0 0 0.4 0"/>
<feBlend mode="normal" in2="BackgroundImageFix" result="effect1_dropShadow_292_298"/>
<feBlend mode="normal" in="SourceGraphic" in2="effect1_dropShadow_292_298" result="shape"/>
</filter>
<filter id="filter1_d_292_298" x="165" y="0" width="193" height="192" filterUnits="userSpaceOnUse" color-interpolation-filters="sRGB">
<feFlood flood-opacity="0" result="BackgroundImageFix"/>
<feColorMatrix in="SourceAlpha" type="matrix" values="0 0 0 0 0 0 0 0 0 0 0 0 0 0 0 0 0 0 127 0" result="hardAlpha"/>
<feOffset dy="17"/>
<feGaussianBlur stdDeviation="13.5"/>
<feComposite in2="hardAlpha" operator="out"/>
<feColorMatrix type="matrix" values="0 0 0 0 0.25098 0 0 0 0 0.392157 0 0 0 0 0.913725 0 0 0 0.4 0"/>
<feBlend mode="normal" in2="BackgroundImageFix" result="effect1_dropShadow_292_298"/>
<feBlend mode="normal" in="SourceGraphic" in2="effect1_dropShadow_292_298" result="shape"/>
</filter>
<filter id="filter2_d_292_298" x="331" y="0" width="192" height="192" filterUnits="userSpaceOnUse" color-interpolation-filters="sRGB">
<feFlood flood-opacity="0" result="BackgroundImageFix"/>
<feColorMatrix in="SourceAlpha" type="matrix" values="0 0 0 0 0 0 0 0 0 0 0 0 0 0 0 0 0 0 127 0" result="hardAlpha"/>
<feOffset dy="17"/>
<feGaussianBlur stdDeviation="13.5"/>
<feComposite in2="hardAlpha" operator="out"/>
<feColorMatrix type="matrix" values="0 0 0 0 0.25098 0 0 0 0 0.392157 0 0 0 0 0.913725 0 0 0 0.4 0"/>
<feBlend mode="normal" in2="BackgroundImageFix" result="effect1_dropShadow_292_298"/>
<feBlend mode="normal" in="SourceGraphic" in2="effect1_dropShadow_292_298" result="shape"/>
</filter>
<filter id="filter3_d_292_298" x="0" y="162" width="192" height="193" filterUnits="userSpaceOnUse" color-interpolation-filters="sRGB">
<feFlood flood-opacity="0" result="BackgroundImageFix"/>
<feColorMatrix in="SourceAlpha" type="matrix" values="0 0 0 0 0 0 0 0 0 0 0 0 0 0 0 0 0 0 127 0" result="hardAlpha"/>
<feOffset dy="17"/>
<feGaussianBlur stdDeviation="13.5"/>
<feComposite in2="hardAlpha" operator="out"/>
<feColorMatrix type="matrix" values="0 0 0 0 0.25098 0 0 0 0 0.392157 0 0 0 0 0.913725 0 0 0 0.4 0"/>
<feBlend mode="normal" in2="BackgroundImageFix" result="effect1_dropShadow_292_298"/>
<feBlend mode="normal" in="SourceGraphic" in2="effect1_dropShadow_292_298" result="shape"/>
</filter>
<filter id="filter4_d_292_298" x="0" y="325" width="192" height="192" filterUnits="userSpaceOnUse" color-interpolation-filters="sRGB">
<feFlood flood-opacity="0" result="BackgroundImageFix"/>
<feColorMatrix in="SourceAlpha" type="matrix" values="0 0 0 0 0 0 0 0 0 0 0 0 0 0 0 0 0 0 127 0" result="hardAlpha"/>
<feOffset dy="17"/>
<feGaussianBlur stdDeviation="13.5"/>
<feComposite in2="hardAlpha" operator="out"/>
<feColorMatrix type="matrix" values="0 0 0 0 0.25098 0 0 0 0 0.392157 0 0 0 0 0.913725 0 0 0 0.4 0"/>
<feBlend mode="normal" in2="BackgroundImageFix" result="effect1_dropShadow_292_298"/>
<feBlend mode="normal" in="SourceGraphic" in2="effect1_dropShadow_292_298" result="shape"/>
</filter>
<filter id="filter5_d_292_298" x="0" y="487" width="192" height="192" filterUnits="userSpaceOnUse" color-interpolation-filters="sRGB">
<feFlood flood-opacity="0" result="BackgroundImageFix"/>
<feColorMatrix in="SourceAlpha" type="matrix" values="0 0 0 0 0 0 0 0 0 0 0 0 0 0 0 0 0 0 127 0" result="hardAlpha"/>
<feOffset dy="17"/>
<feGaussianBlur stdDeviation="13.5"/>
<feComposite in2="hardAlpha" operator="out"/>
<feColorMatrix type="matrix" values="0 0 0 0 0.25098 0 0 0 0 0.392157 0 0 0 0 0.913725 0 0 0 0.4 0"/>
<feBlend mode="normal" in2="BackgroundImageFix" result="effect1_dropShadow_292_298"/>
<feBlend mode="normal" in="SourceGraphic" in2="effect1_dropShadow_292_298" result="shape"/>
</filter>
<filter id="filter6_d_292_298" x="165" y="162" width="193" height="193" filterUnits="userSpaceOnUse" color-interpolation-filters="sRGB">
<feFlood flood-opacity="0" result="BackgroundImageFix"/>
<feColorMatrix in="SourceAlpha" type="matrix" values="0 0 0 0 0 0 0 0 0 0 0 0 0 0 0 0 0 0 127 0" result="hardAlpha"/>
<feOffset dy="17"/>
<feGaussianBlur stdDeviation="13.5"/>
<feComposite in2="hardAlpha" operator="out"/>
<feColorMatrix type="matrix" values="0 0 0 0 0.25098 0 0 0 0 0.392157 0 0 0 0 0.913725 0 0 0 0.4 0"/>
<feBlend mode="normal" in2="BackgroundImageFix" result="effect1_dropShadow_292_298"/>
<feBlend mode="normal" in="SourceGraphic" in2="effect1_dropShadow_292_298" result="shape"/>
</filter>
<filter id="filter7_d_292_298" x="165" y="325" width="193" height="192" filterUnits="userSpaceOnUse" color-interpolation-filters="sRGB">
<feFlood flood-opacity="0" result="BackgroundImageFix"/>
<feColorMatrix in="SourceAlpha" type="matrix" values="0 0 0 0 0 0 0 0 0 0 0 0 0 0 0 0 0 0 127 0" result="hardAlpha"/>
<feOffset dy="17"/>
<feGaussianBlur stdDeviation="13.5"/>
<feComposite in2="hardAlpha" operator="out"/>
<feColorMatrix type="matrix" values="0 0 0 0 0.25098 0 0 0 0 0.392157 0 0 0 0 0.913725 0 0 0 0.4 0"/>
<feBlend mode="normal" in2="BackgroundImageFix" result="effect1_dropShadow_292_298"/>
<feBlend mode="normal" in="SourceGraphic" in2="effect1_dropShadow_292_298" result="shape"/>
</filter>
<filter id="filter8_d_292_298" x="165" y="487" width="193" height="192" filterUnits="userSpaceOnUse" color-interpolation-filters="sRGB">
<feFlood flood-opacity="0" result="BackgroundImageFix"/>
<feColorMatrix in="SourceAlpha" type="matrix" values="0 0 0 0 0 0 0 0 0 0 0 0 0 0 0 0 0 0 127 0" result="hardAlpha"/>
<feOffset dy="17"/>
<feGaussianBlur stdDeviation="13.5"/>
<feComposite in2="hardAlpha" operator="out"/>
<feColorMatrix type="matrix" values="0 0 0 0 0.25098 0 0 0 0 0.392157 0 0 0 0 0.913725 0 0 0 0.4 0"/>
<feBlend mode="normal" in2="BackgroundImageFix" result="effect1_dropShadow_292_298"/>
<feBlend mode="normal" in="SourceGraphic" in2="effect1_dropShadow_292_298" result="shape"/>
</filter>
<filter id="filter9_d_292_298" x="330" y="162" width="192" height="193" filterUnits="userSpaceOnUse" color-interpolation-filters="sRGB">
<feFlood flood-opacity="0" result="BackgroundImageFix"/>
<feColorMatrix in="SourceAlpha" type="matrix" values="0 0 0 0 0 0 0 0 0 0 0 0 0 0 0 0 0 0 127 0" result="hardAlpha"/>
<feOffset dy="17"/>
<feGaussianBlur stdDeviation="13.5"/>
<feComposite in2="hardAlpha" operator="out"/>
<feColorMatrix type="matrix" values="0 0 0 0 0.25098 0 0 0 0 0.392157 0 0 0 0 0.913725 0 0 0 0.4 0"/>
<feBlend mode="normal" in2="BackgroundImageFix" result="effect1_dropShadow_292_298"/>
<feBlend mode="normal" in="SourceGraphic" in2="effect1_dropShadow_292_298" result="shape"/>
</filter>
<filter id="filter10_d_292_298" x="330" y="325" width="192" height="192" filterUnits="userSpaceOnUse" color-interpolation-filters="sRGB">
<feFlood flood-opacity="0" result="BackgroundImageFix"/>
<feColorMatrix in="SourceAlpha" type="matrix" values="0 0 0 0 0 0 0 0 0 0 0 0 0 0 0 0 0 0 127 0" result="hardAlpha"/>
<feOffset dy="17"/>
<feGaussianBlur stdDeviation="13.5"/>
<feComposite in2="hardAlpha" operator="out"/>
<feColorMatrix type="matrix" values="0 0 0 0 0.25098 0 0 0 0 0.392157 0 0 0 0 0.913725 0 0 0 0.4 0"/>
<feBlend mode="normal" in2="BackgroundImageFix" result="effect1_dropShadow_292_298"/>
<feBlend mode="normal" in="SourceGraphic" in2="effect1_dropShadow_292_298" result="shape"/>
</filter>
<filter id="filter11_d_292_298" x="330" y="487" width="192" height="192" filterUnits="userSpaceOnUse" color-interpolation-filters="sRGB">
<feFlood flood-opacity="0" result="BackgroundImageFix"/>
<feColorMatrix in="SourceAlpha" type="matrix" values="0 0 0 0 0 0 0 0 0 0 0 0 0 0 0 0 0 0 127 0" result="hardAlpha"/>
<feOffset dy="17"/>
<feGaussianBlur stdDeviation="13.5"/>
<feComposite in2="hardAlpha" operator="out"/>
<feColorMatrix type="matrix" values="0 0 0 0 0.25098 0 0 0 0 0.392157 0 0 0 0 0.913725 0 0 0 0.4 0"/>
<feBlend mode="normal" in2="BackgroundImageFix" result="effect1_dropShadow_292_298"/>
<feBlend mode="normal" in="SourceGraphic" in2="effect1_dropShadow_292_298" result="shape"/>
</filter>
<clipPath id="clip0_292_298">
<rect width="90.3125" height="100" fill="white" transform="translate(382 29)"/>
</clipPath>
<clipPath id="clip1_292_298">
<rect x="46" y="192" width="100" height="100" rx="20" fill="white"/>
</clipPath>
<clipPath id="clip2_292_298">
<rect width="100" height="98.2456" fill="white" transform="translate(46 517)"/>
</clipPath>
<clipPath id="clip3_292_298">
<rect width="100" height="100" fill="white" transform="translate(212 354)"/>
</clipPath>
<clipPath id="clip4_292_298">
<rect width="100" height="100" fill="white" transform="translate(376 192)"/>
</clipPath>
</defs>
</svg>
